:version 1.10
:name ASF
:units
  mass 1
  length 1
  angle deg
:documentation
  ASF file generated by Kaydara
:root
  axis xyz
  order  tx ty tz rx ry rz
  position 0 0 0
  orientation 0 0 0
:bonedata
  begin
    id 1
    name RightUpLegDummy
    direction -0.718183 -0.695806 0.00816078
    length 4.904
    axis 0 0 0 xyz
  end
  begin
    id 2
    name RightUpLeg
    direction -0.0736652 -0.994202 0.0783343
    length 17.4976
    axis -2.72909 -3.00389 -4.00133 xyz
    dof rx ry rz
  end
  begin
    id 3
    name RightLeg
    direction -0.0389037 -0.994596 -0.0962598
    length 16.5821
    axis 3.95836 -18.5909 -4.46993 xyz
    dof rx ry rz
  end
  begin
    id 4
    name RightFoot
    direction -0.311643 -0.412678 0.855906
    length 3.77069
    axis -1.99483 -18.8351 -3.27644 xyz
    dof rx ry rz
  end
  begin
    id 5
    name RightToes
    direction -0.317852 0.0389852 0.947339
    length 3.85082
    axis -2.00228 -18.1713 -3.25211 xyz
    dof rx ry rz
  end
  begin
    id 6
    name SpineDummy
    direction 8.3039e-015 1 4.44677e-016
    length 4.6813
    axis 0 0 0 xyz
  end
  begin
    id 7
    name Spine
    direction -0.000262373 0.999988 0.00493267
    length 10.1015
    axis -0.00246081 0.00062579 0.0150362 xyz
    dof rx ry rz
  end
  begin
    id 8
    name Spine1
    direction 0 0 0
    length 0
    axis -0.00349562 0.000650293 0.0196666 xyz
    dof rx ry rz
  end
  begin
    id 9
    name HEadDummy
    direction -0.000343232 0.999999 0.00123745
    length 3.43865
    axis -0.00349562 0.000650293 0.0196666 xyz
  end
  begin
    id 10
    name HEad
    direction -0.0461221 0.980933 0.188796
    length 5.12695
    axis -0.00351404 -7.04812 0.0199272 xyz
    dof rx ry rz
  end
  begin
    id 11
    name LeftShoulder1Dummy
    direction 0.998904 -0.0399089 -0.0244534
    length 3.5433
    axis -0.00349562 0.000650293 0.0196666 xyz
  end
  begin
    id 12
    name LeftShoulder1
    direction 0.99951 1.64443e-005 0.0312999
    length 4.05031
    axis -0.00349562 0.000650293 0.0196666 xyz
    dof rx ry rz
  end
  begin
    id 13
    name LeftArm
    direction 0.984791 0.0515299 0.165927
    length 12.9126
    axis -64.823 -10.7743 5.20463 xyz
    dof rx ry rz
  end
  begin
    id 14
    name LeftForeArm
    direction 0.984968 0.0534808 0.16425
    length 10.8596
    axis -30.0462 -7.70601 1.87451 xyz
    dof rx ry rz
  end
  begin
    id 15
    name LeftHand
    direction 0.975871 0.0289682 0.216418
    length 6.62295
    axis -20.1348 -6.98077 1.86072 xyz
    dof rx ry rz
  end
  begin
    id 16
    name RightShoulderDummy
    direction -0.998877 -0.0405946 -0.0244307
    length 3.5433
    axis -0.00349562 0.000650293 0.0196666 xyz
  end
  begin
    id 17
    name RightShoulder
    direction -0.998933 -0.0249743 -0.0388558
    length 4.05031
    axis -0.0205316 -4.02113 1.41395 xyz
    dof rx ry rz
  end
  begin
    id 18
    name RightArm
    direction -0.997559 0.068664 0.0127103
    length 12.9638
    axis -67.3882 1.84188 -6.15987 xyz
    dof rx ry rz
  end
  begin
    id 19
    name RightForeArm
    direction -0.991508 0.0912848 0.0926241
    length 10.8312
    axis -22.1975 3.41087 -4.28711 xyz
    dof rx ry rz
  end
  begin
    id 20
    name RightHand
    direction -0.989262 0.0600788 0.133232
    length 6.57864
    axis -12.2911 2.17515 -4.39675 xyz
    dof rx ry rz
  end
  begin
    id 21
    name LeftUpLegDummy
    direction 0.718183 -0.695806 0.00816078
    length 4.904
    axis 0 0 0 xyz
  end
  begin
    id 22
    name LeftUpLeg
    direction 0.0831398 -0.99469 0.0606531
    length 17.4976
    axis -1.71016 2.29552 4.63832 xyz
    dof rx ry rz
  end
  begin
    id 23
    name LeftLeg
    direction 0.0498442 -0.991778 -0.117862
    length 16.5821
    axis 5.13757 15.5727 5.13348 xyz
    dof rx ry rz
  end
  begin
    id 24
    name LeftFoot
    direction 0.269026 -0.433896 0.85986
    length 3.77069
    axis -0.576502 15.6961 4.10267 xyz
    dof rx ry rz
  end
  begin
    id 25
    name LeftToes
    direction 0.277311 0.0251143 0.960452
    length 3.85048
    axis -0.576502 15.6961 4.10267 xyz
    dof rx ry rz
  end
:hierarchy
  begin
    root RightUpLegDummy SpineDummy LeftUpLegDummy
    RightUpLegDummy RightUpLeg
    RightUpLeg RightLeg
    RightLeg RightFoot
    RightFoot RightToes
    SpineDummy Spine
    Spine Spine1
    Spine1 HEadDummy LeftShoulder1Dummy RightShoulderDummy
    HEadDummy HEad
    LeftShoulder1Dummy LeftShoulder1
    LeftShoulder1 LeftArm
    LeftArm LeftForeArm
    LeftForeArm LeftHand
    RightShoulderDummy RightShoulder
    RightShoulder RightArm
    RightArm RightForeArm
    RightForeArm RightHand
    LeftUpLegDummy LeftUpLeg
    LeftUpLeg LeftLeg
    LeftLeg LeftFoot
    LeftFoot LeftToes
  end

:SAMPLES-PER-SECOND 30
:FULLY-SPECIFIED
:DEGREES
32
root  -7.09586 40.7683 103.472 179.56 7.65204 -179.956
RightUpLeg  0.858899 -0.388841 1.43924
RightLeg  1.48315 -4.52999 0.678889
RightFoot  -0.966777 0.231795 -2.20205
RightToes  3.97569e-016 -3.18055e-015 -2.98177e-016
Spine  -2.60482 -0.236872 -0.711233
Spine1  9.61987 -0.753571 2.26636
HEad  -4.84508 -2.69298 -1.88117
LeftShoulder1  -3.88251e-019 9.70628e-020 -3.87848e-018
LeftArm  -31.2479 55.7424 -72.8083
LeftForeArm  -0.608004 -11.0772 -2.1367
LeftHand  -0.616331 -2.45621 9.7867
RightShoulder  9.23588 11.3579 41.8793
RightArm  11.8765 -39.6265 12.1479
RightForeArm  6.28315 16.313 -5.7967
RightHand  -0.857502 3.10787 -11.5568
LeftUpLeg  1.71728 -1.81659 -2.83597
LeftLeg  0.755117 8.7215 0.673478
LeftFoot  -1.47284 -0.234189 2.27016
LeftToes  4.86531e-011 4.41684e-011 -2.86034e-011
33
root  -7.0661 40.7639 103.478 179.511 7.66771 179.972
RightUpLeg  0.785766 -0.397249 1.42569
RightLeg  1.69086 -4.50727 0.567628
RightFoot  -1.08946 0.227715 -2.18396
RightToes  3.97569e-016 -3.18055e-015 -2.98177e-016
Spine  -2.59978 -0.225495 -0.921577
Spine1  9.8507 -0.782169 2.4744
HEad  -5.06737 -2.49643 -1.89013
LeftShoulder1  -3.88251e-019 9.70628e-020 -3.87848e-018
LeftArm  -31.079 55.526 -72.8829
LeftForeArm  -0.420153 -11.4695 -2.12128
LeftHand  -0.626804 -2.79083 9.53521
RightShoulder  9.22975 11.3552 41.8575
RightArm  12.0731 -39.5708 12.1015
RightForeArm  5.67961 16.4054 -5.82641
RightHand  -0.850574 2.69503 -12.05
LeftUpLeg  1.73901 -1.91274 -2.90462
LeftLeg  0.780262 8.82139 0.755491
LeftFoot  -1.44764 -0.225034 2.17506
LeftToes  4.86531e-011 4.41684e-011 -2.86034e-011
34
root  -7.03375 40.7638 103.484 179.591 7.7536 179.958
RightUpLeg  0.647589 -0.366496 1.47048
RightLeg  1.7612 -4.46024 0.54695
RightFoot  -1.12333 0.232153 -2.24303
RightToes  3.97569e-016 -3.18055e-015 -2.98177e-016
Spine  -2.73824 -0.17505 -0.924372
Spine1  10.0595 -0.726651 2.45865
HEad  -5.11664 -2.41956 -2.02085
LeftShoulder1  -3.88251e-019 9.70628e-020 -3.87848e-018
LeftArm  -30.8337 55.3014 -72.8666
LeftForeArm  -0.335342 -11.8081 -2.15216
LeftHand  -0.673044 -3.13429 9.80866
RightShoulder  9.22218 11.3534 41.8268
RightArm  12.0439 -39.6385 12.0067
RightForeArm  5.36346 16.4771 -5.94654
RightHand  -0.846872 2.5985 -12.1669
LeftUpLeg  1.67485 -1.93038 -2.88483
LeftLeg  0.735902 8.92218 0.768067
LeftFoot  -1.39255 -0.221632 2.14096
LeftToes  4.86531e-011 4.41684e-011 -2.86034e-011
35
root  -6.99225 40.7662 103.482 179.733 7.89368 -179.981
RightUpLeg  0.549252 -0.30673 1.58733
RightLeg  1.68118 -4.39236 0.640625
RightFoot  -1.10526 0.243921 -2.37459
RightToes  3.97569e-016 -3.18055e-015 -2.98177e-016
Spine  -2.96563 -0.113446 -0.778014
Spine1  10.261 -0.637868 2.3014
HEad  -5.03024 -2.36178 -2.16426
LeftShoulder1  -3.88251e-019 9.70628e-020 -3.87848e-018
LeftArm  -30.6088 55.2145 -72.8096
LeftForeArm  -0.502733 -12.2976 -2.16584
LeftHand  -0.6976 -3.19477 10.0866
RightShoulder  9.19989 11.3426 41.7491
RightArm  12.0222 -39.7489 11.8629
RightForeArm  5.42551 16.5102 -6.03609
RightHand  -0.841948 2.73676 -11.8979
LeftUpLeg  1.58304 -1.87134 -2.76217
LeftLeg  0.671751 8.99236 0.766859
LeftFoot  -1.35894 -0.214271 2.06578
LeftToes  4.86531e-011 4.41684e-011 -2.86034e-011
36
root  -6.94061 40.7672 103.475 179.883 8.01704 -179.918
RightUpLeg  0.465011 -0.233301 1.72366
RightLeg  1.58792 -4.358 0.735899
RightFoot  -1.11137 0.25665 -2.51367
RightToes  3.97569e-016 -3.18055e-015 -2.98177e-016
Spine  -3.21831 -0.0761757 -0.723416
Spine1  10.4286 -0.59797 2.24856
HEad  -4.9332 -2.15112 -2.10058
LeftShoulder1  -3.88251e-019 9.70628e-020 -3.87848e-018
LeftArm  -30.4779 55.4332 -72.7773
LeftForeArm  -0.662947 -13.1475 -2.05644
LeftHand  -0.681213 -3.23861 9.80584
RightShoulder  9.16523 11.3231 41.6346
RightArm  11.944 -39.792 11.7246
RightForeArm  5.75326 16.3969 -5.94501
RightHand  -0.833566 2.66164 -11.8878
LeftUpLeg  1.47285 -1.81789 -2.62973
LeftLeg  0.642703 9.04396 0.799715
LeftFoot  -1.34557 -0.198522 1.90307
LeftToes  4.86531e-011 4.41684e-011 -2.86034e-011
37
root  -6.88212 40.7655 103.472 179.987 8.04413 -179.915
RightUpLeg  0.36808 -0.136158 1.84473
RightLeg  1.59188 -4.44543 0.709804
RightFoot  -1.16853 0.264116 -2.59677
RightToes  3.97569e-016 -3.18055e-015 -2.98177e-016
Spine  -3.3562 -0.0824493 -0.834814
Spine1  10.4748 -0.622004 2.33131
HEad  -4.8759 -1.91184 -1.87248
LeftShoulder1  -3.88251e-019 9.70628e-020 -3.87848e-018
LeftArm  -30.4626 55.7788 -72.7632
LeftForeArm  -0.594607 -14.0223 -1.86471
LeftHand  -0.666966 -3.51234 9.30888
RightShoulder  9.14066 11.3088 41.5548
RightArm  11.5742 -39.7714 11.615
RightForeArm  6.30995 16.1147 -5.73723
RightHand  -0.839072 2.53213 -12.1518
LeftUpLeg  1.37552 -1.79859 -2.54648
LeftLeg  0.64525 9.04575 0.835629
LeftFoot  -1.31996 -0.185169 1.76632
LeftToes  4.86531e-011 4.41684e-011 -2.86034e-011
38
root  -6.82222 40.7632 103.474 -179.987 8.00812 -179.963
RightUpLeg  0.285251 -0.0325377 1.94166
RightLeg  1.69177 -4.59872 0.58102
RightFoot  -1.25999 0.265944 -2.6205
RightToes  3.97569e-016 -3.18055e-015 -2.98177e-016
Spine  -3.31638 -0.102648 -0.96583
Spine1  10.4142 -0.641123 2.37813
HEad  -4.8347 -1.80138 -1.73913
LeftShoulder1  -3.88251e-019 9.70628e-020 -3.87848e-018
LeftArm  -30.5143 55.8339 -72.7016
LeftForeArm  -0.441883 -14.2781 -1.76904
LeftHand  -0.672965 -3.69935 9.19667
RightShoulder  9.14416 11.3071 41.5689
RightArm  11.0132 -39.7294 11.4869
RightForeArm  7.00407 15.7911 -5.57785
RightHand  -0.852046 2.76346 -12.0044
LeftUpLeg  1.35016 -1.78945 -2.50017
LeftLeg  0.629765 9.00039 0.833337
LeftFoot  -1.28627 -0.179401 1.71016
LeftToes  4.86531e-011 4.41684e-011 -2.86034e-011
39
root  -6.76725 40.7607 103.477 -179.998 8.02246 179.986
RightUpLeg  0.22293 0.0094886 1.99827
RightLeg  1.82793 -4.63368 0.491663
RightFoot  -1.36715 0.268738 -2.65317
RightToes  3.97569e-016 -3.18055e-015 -2.98177e-016
Spine  -3.21122 -0.0842435 -0.979781
Spine1  10.3523 -0.590556 2.29776
HEad  -4.8035 -1.69924 -1.75159
LeftShoulder1  -3.88251e-019 9.70628e-020 -3.87848e-018
LeftArm  -30.5341 55.4771 -72.5577
LeftForeArm  -0.352459 -13.7736 -1.85149
LeftHand  -0.665588 -3.41183 9.39764
RightShoulder  9.15912 11.3023 41.6215
RightArm  10.6133 -39.7068 11.3218
RightForeArm  7.52678 15.5433 -5.47241
RightHand  -0.836451 3.00429 -11.4559
LeftUpLeg  1.37343 -1.77875 -2.46243
LeftLeg  0.610244 8.98262 0.823415
LeftFoot  -1.27958 -0.170605 1.62312
LeftToes  4.86531e-011 4.41684e-011 -2.86034e-011
40
root  -6.72253 40.757 103.476 -179.998 8.06691 179.97
RightUpLeg  0.192606 -0.0509445 2.01109
RightLeg  1.92724 -4.5339 0.544403
RightFoot  -1.46429 0.278174 -2.75358
RightToes  3.97569e-016 -3.18055e-015 -2.98177e-016
Spine  -3.14012 -0.0323502 -0.864722
Spine1  10.3262 -0.492936 2.13503
HEad  -4.84812 -1.51457 -1.69609
LeftShoulder1  -3.88251e-019 9.70628e-020 -3.87848e-018
LeftArm  -30.4297 54.9914 -72.3581
LeftForeArm  -0.186796 -13.0507 -2.00665
LeftHand  -0.629857 -2.86692 9.49214
RightShoulder  9.15698 11.2999 41.6148
RightArm  10.4643 -39.7626 11.1719
RightForeArm  7.64862 15.36 -5.33283
RightHand  -0.803424 2.68317 -11.4384
LeftUpLeg  1.35486 -1.75717 -2.40898
LeftLeg  0.677541 8.97544 0.858856
LeftFoot  -1.30902 -0.156909 1.48598
LeftToes  4.86531e-011 4.41684e-011 -2.86034e-011
